<mxfile host="app.diagrams.net" modified="2023-09-21T14:00:53.425Z" agent="Mozilla/5.0 (Windows NT 10.0; Win64; x64) AppleWebKit/537.36 (KHTML, like Gecko) Chrome/117.0.0.0 Safari/537.36 Edg/117.0.2045.31" etag="0ung72bXAY8aYic6FiKs" version="21.8.0" type="github">
  <diagram name="PÃ¡gina-1" id="RjQVRa5RYdsWevy5bkIp">
    <mxGraphModel dx="832" dy="439" grid="1" gridSize="10" guides="1" tooltips="1" connect="1" arrows="1" fold="1" page="1" pageScale="1" pageWidth="827" pageHeight="1169" math="0" shadow="0">
      <root>
        <mxCell id="0" />
        <mxCell id="1" parent="0" />
      </root>
    </mxGraphModel>
  </diagram>
</mxfile>
